<?xml version="1.0" encoding="UTF-8" standalone="no"?>
<svg width="20px" height="20px" viewBox="0 0 20 20" version="1.1" xmlns="http://www.w3.org/2000/svg" xmlns:xlink="http://www.w3.org/1999/xlink">
    <!-- Generator: Sketch 48.2 (47327) - http://www.bohemiancoding.com/sketch -->
    <title>Add</title>
    <desc>Created with Sketch.</desc>
    <defs></defs>
    <g id="keyicons.com" stroke="none" stroke-width="1" fill="none" fill-rule="evenodd" transform="translate(-55.000000, -62.000000)">
        <g id="Add" transform="translate(55.000000, 62.000000)" fill-rule="nonzero">
            <path d="M10,20 C4.4771525,20 0,15.5228475 0,10 C-1.48029737e-15,4.4771525 4.4771525,0 10,0 C15.5228475,-1.48029737e-15 20,4.4771525 20,10 C20,12.6521649 18.9464316,15.195704 17.0710678,17.0710678 C15.195704,18.9464316 12.6521649,20 10,20 Z" id="Shape" fill="#04DEAD"></path>
            <polygon id="Shape" fill="#FFFFFF" points="10.8333333 5 9.16666667 5 9.16666667 9.16666667 5 9.16666667 5 10.8333333 9.16666667 10.8333333 9.16666667 15 10.8333333 15 10.8333333 10.8333333 15 10.8333333 15 9.16666667 10.8333333 9.16666667"></polygon>
        </g>
    </g>
</svg>