<?xml version="1.0" encoding="UTF-8" standalone="no"?>
<svg width="15px" height="15px" viewBox="0 0 15 15" version="1.1" xmlns="http://www.w3.org/2000/svg" xmlns:xlink="http://www.w3.org/1999/xlink">
    <!-- Generator: Sketch 48.2 (47327) - http://www.bohemiancoding.com/sketch -->
    <title>Calendar</title>
    <desc>Created with Sketch.</desc>
    <defs></defs>
    <g id="keyicons.com" stroke="none" stroke-width="1" fill="none" fill-rule="evenodd" transform="translate(-555.000000, -61.000000)">
        <g id="Calendar" transform="translate(555.000000, 61.000000)" fill="#000000" fill-rule="nonzero">
            <path d="M13.75,1.25 L11.25,1.25 L11.25,0 L10,0 L10,1.25 L5,1.25 L5,0 L3.75,0 L3.75,1.25 L1.25,1.25 C0.559644063,1.25 0,1.80964406 0,2.5 L0,13.75 C0,14.4403559 0.559644063,15 1.25,15 L13.75,15 C14.4403559,15 15,14.4403559 15,13.75 L15,2.5 C15,1.80964406 14.4403559,1.25 13.75,1.25 Z M13.75,13.75 L1.25,13.75 L1.25,6.25 L13.75,6.25 L13.75,13.75 Z M1.25,5 L1.25,2.5 L3.75,2.5 L3.75,3.75 L5,3.75 L5,2.5 L10,2.5 L10,3.75 L11.25,3.75 L11.25,2.5 L13.75,2.5 L13.75,5 L1.25,5 Z" id="Shape"></path>
        </g>
    </g>
</svg>