<?xml version="1.0" encoding="UTF-8" standalone="no"?>
<svg width="51px" height="40px" viewBox="0 0 51 40" version="1.1" xmlns="http://www.w3.org/2000/svg" xmlns:xlink="http://www.w3.org/1999/xlink">
    <!-- Generator: Sketch 48.2 (47327) - http://www.bohemiancoding.com/sketch -->
    <title>vc-monogram</title>
    <desc>Created with Sketch.</desc>
    <defs>
        <linearGradient x1="100%" y1="50%" x2="0%" y2="50%" id="linearGradient-1">
            <stop stop-color="#BAB5F6" offset="0%"></stop>
            <stop stop-color="#00BBF0" offset="100%"></stop>
        </linearGradient>
    </defs>
    <g id="Page-1" stroke="none" stroke-width="1" fill="none" fill-rule="evenodd">
        <g id="vc-monogram" fill="url(#linearGradient-1)" fill-rule="nonzero">
            <path d="M6.67549669,0.21192053 C7.9205298,0.21192053 9.13907285,0.264900662 10.384106,0.21192053 C13.7218543,0.0529801325 16.5298013,1.24503311 18.9139073,3.47019868 C19.5761589,4.10596026 20.0264901,4.05298013 20.7152318,3.54966887 C24.0794702,1.13907285 27.9205298,0.0529801325 32.0264901,0.0264900662 C37.7483444,-0.0264900662 43.4966887,0.0264900662 49.2450331,0.0529801325 C50.9933775,0.0529801325 51.0993377,0.21192053 50.3046358,1.7218543 C49.1655629,3.94701987 48.2384106,6.33112583 46.807947,8.39735099 C43.2582781,13.6423841 38.1721854,16.1589404 31.9205298,16.4238411 C30.4635762,16.4768212 29.3509934,17.0596026 28.7417219,18.384106 C28.1324503,19.6821192 28.2384106,20.9536424 29.0860927,22.1456954 C29.8278146,23.1523179 30.8609272,23.5761589 32.0794702,23.5761589 C34.0662252,23.5761589 36.0529801,23.602649 38.0397351,23.5761589 C38.9933775,23.5761589 39.2317881,23.8940397 38.781457,24.7682119 C36.397351,29.4834437 34.013245,34.2251656 31.6556291,38.9668874 C31.2847682,39.7350993 30.781457,39.9205298 29.9602649,39.8145695 C22.9139073,38.9668874 17.6953642,35.3377483 14.3311258,29.1655629 C9.40397351,20.1324503 5.19205298,10.7549669 0.529801325,1.58940397 C-0.0529801325,0.42384106 0.0529801325,0.264900662 1.40397351,0.238410596 C3.15231788,0.21192053 4.92715232,0.21192053 6.67549669,0.21192053 C6.67549669,0.21192053 6.67549669,0.21192053 6.67549669,0.21192053 Z M31.8145695,4.55629139 C26.9668874,4.76821192 23.0728477,6.49006623 20.1854305,10.0662252 C16.9801325,14.0397351 16.0264901,18.6754967 17.1390728,23.6556291 C18.384106,29.2715232 22.013245,32.7682119 27.3377483,34.6754967 C28.1324503,34.9668874 28.6622517,34.8874172 29.0596026,34.0397351 C29.8543046,32.3708609 30.7019868,30.7284768 31.5496689,29.0596026 C31.8940397,28.397351 31.7880795,28.1589404 30.9933775,28.0529801 C27.3642384,27.5761589 25.1390728,25.2980132 23.8675497,22.0927152 C21.7748344,16.8741722 23.5761589,10.9668874 28.2649007,7.17880795 C29.3509934,6.33112583 30.4900662,5.53642384 31.8145695,4.55629139 Z M12.4503311,15.3112583 C12.9801325,15.0728477 12.9271523,14.6754967 13.0331126,14.3576159 C13.615894,12.2649007 14.4900662,10.2781457 15.7350993,8.50331126 C16.5033113,7.44370861 16.1324503,6.88741722 15.2847682,6.22516556 C13.1125828,4.50331126 10.5695364,4.47682119 8,4.55629139 C7.07284768,4.58278146 7.36423841,5.16556291 7.60264901,5.66887417 C8.74172185,7.94701987 9.8807947,10.2516556 11.0198675,12.5298013 C11.4966887,13.4569536 11.9735099,14.384106 12.4503311,15.3112583 Z M29.986755,11.8145695 C30.0927152,11.8940397 30.1192053,11.9470199 30.1456954,11.9470199 C30.8344371,11.9205298 31.5496689,11.8940397 32.2384106,11.8410596 C36.3708609,11.5231788 39.9205298,10.013245 42.4900662,6.62251656 C42.6754967,6.38410596 42.9933775,6.14569536 42.8344371,5.82781457 C42.6225166,5.40397351 42.1986755,5.66887417 41.8807947,5.74834437 C38.8874172,6.43708609 36.0529801,7.47019868 33.4039735,9.03311258 C32.1589404,9.77483444 30.9403974,10.6490066 29.986755,11.8145695 Z" id="Shape"></path>
        </g>
    </g>
</svg>