<?xml version="1.0" encoding="UTF-8" standalone="no"?>
<svg width="10px" height="14px" viewBox="0 0 10 14" version="1.1" xmlns="http://www.w3.org/2000/svg" xmlns:xlink="http://www.w3.org/1999/xlink">
    <!-- Generator: Sketch 48.2 (47327) - http://www.bohemiancoding.com/sketch -->
    <title>Map-Pin</title>
    <desc>Created with Sketch.</desc>
    <defs></defs>
    <g id="keyicons.com" stroke="none" stroke-width="1" fill="none" fill-rule="evenodd" transform="translate(-237.000000, -199.000000)">
        <g id="Map-Pin" transform="translate(236.000000, 198.000000)" fill="#000000" fill-rule="nonzero">
            <path d="M9.6,2.43 C8.64088899,1.4889801 7.34339672,0.973587333 6,1 C4.64284097,0.962705205 3.32886502,1.47891005 2.36,2.43 C1.41391456,3.42991968 0.921924915,4.77565605 1,6.15 C1,8.6 2.61,11.46 5.64,14.63 L6,15 L6.36,14.63 C9.42,11.45 10.98,8.63 11,6.14 C11.0646232,4.7632318 10.5580635,3.42084867 9.6,2.43 Z M6,13.55 C3.39,10.73 2,8.23 2,6.12 C1.92598143,5.01499398 2.31340684,3.9287545 3.07,3.12 C3.8534445,2.36331888 4.91158015,1.95884382 6,2 C7.08644229,1.96425321 8.14064375,2.37221473 8.92,3.13 C9.68191984,3.93784741 10.0826044,5.02077862 10.03,6.13 C10,8.23 8.63,10.72 6,13.55 Z" id="Shape"></path>
            <path d="M6,4 C4.8954305,4 4,4.8954305 4,6 C4,7.1045695 4.8954305,8 6,8 C7.1045695,8 8,7.1045695 8,6 C8,4.8954305 7.1045695,4 6,4 Z M6,6.85 C5.65125753,6.84997642 5.33705621,6.63934564 5.2045518,6.31675628 C5.07204739,5.99416692 5.14747683,5.6234943 5.39551286,5.37834242 C5.64354888,5.13319054 6.01507833,5.06210146 6.33609592,5.19836965 C6.65711351,5.33463785 6.86405514,5.6512811 6.86,6 C6.85452225,6.47105504 6.47108689,6.85003185 6,6.85 Z" id="Shape"></path>
        </g>
    </g>
</svg>