<?xml version="1.0" encoding="UTF-8" standalone="no"?>
<svg width="23px" height="23px" viewBox="0 0 23 23" version="1.1" xmlns="http://www.w3.org/2000/svg" xmlns:xlink="http://www.w3.org/1999/xlink">
    <!-- Generator: Sketch 48.2 (47327) - http://www.bohemiancoding.com/sketch -->
    <title>Search</title>
    <desc>Created with Sketch.</desc>
    <defs></defs>
    <g id="keyicons.com" stroke="none" stroke-width="1" fill="none" fill-rule="evenodd" transform="translate(-555.000000, -199.000000)">
        <g id="Search" transform="translate(554.000000, 198.000000)" fill="#000000" fill-rule="nonzero">
            <path d="M23.6785714,22.4285714 L17.3035714,16.0714286 C20.2895051,12.3671511 19.8461479,6.97214753 16.2955292,3.80503873 C12.7449106,0.637929934 7.33450195,0.811445489 3.99411361,4.19955366 C0.653725273,7.58766184 0.556966697,12.9999873 3.77411776,16.5053275 C6.99126882,20.0106678 12.3920181,20.3774593 16.0535714,17.3392857 L22.4285714,23.7142857 L23.6785714,22.4285714 Z M5.21428571,15.4821429 C2.59273831,12.6128662 2.69248561,8.18889517 5.44069039,5.44069039 C8.18889517,2.69248561 12.6128662,2.59273831 15.4821429,5.21428571 C18.1036903,8.08356232 18.003943,12.5075334 15.2557382,15.2557382 C12.5075334,18.003943 8.08356232,18.1036903 5.21428571,15.4821429 Z" id="Shape"></path>
        </g>
    </g>
</svg>